<svg width="50" height="50" viewBox="0 0 50 50" fill="none" xmlns="http://www.w3.org/2000/svg">
<path d="M12.0546 38.9327V32.3207C14.1143 32.1172 15.3299 31.2526 15.7013 29.7267C15.7689 29.4215 15.8026 29.0994 15.8026 28.7603C15.8026 26.7259 14.8572 25.4374 12.9663 24.8948C11.987 24.5897 10.7546 24.4371 9.26886 24.4371V17.8251C13.1182 17.8251 15.2624 16.7739 15.7013 14.6716C15.7689 14.2986 15.8026 13.9087 15.8026 13.5018C15.8026 11.6369 14.7896 10.484 12.7637 10.0432C12.4935 10.0093 12.2572 9.9754 12.0546 9.94149V3.32947C14.8909 3.32947 17.3052 4.22803 19.2975 6.02514C21.3572 7.89007 22.3871 10.3653 22.3871 13.451C22.3871 16.7739 21.3741 19.2492 19.3481 20.8768C19.213 20.9785 19.0949 21.0633 18.9936 21.1311C20.8507 22.3857 21.9481 24.4032 22.2858 27.1836C22.3533 27.7261 22.3871 28.2687 22.3871 28.8112C22.3871 32.9819 20.6481 35.9488 17.1702 37.712C15.5156 38.5258 13.8104 38.9327 12.0546 38.9327ZM0 29.8284L6.12859 28.6586C6.12859 30.4557 6.88833 31.6255 8.40781 32.1681C8.74548 32.2698 9.03249 32.3207 9.26886 32.3207V38.9327C6.56755 38.9327 4.25456 37.8307 2.32988 35.6267C0.776626 33.8296 0 31.8968 0 29.8284Z" fill="white"/>
<path d="M3.14027 5.77083C1.04676 7.66967 0 9.89063 0 12.4337L6.12859 13.6035C6.12859 13.061 6.213 12.5524 6.38183 12.0777C6.88833 10.8231 7.85067 10.111 9.26886 9.94149V3.32947C7.00651 3.32947 4.96365 4.14326 3.14027 5.77083Z" fill="white"/>
<path d="M27.7475 3.28377C26.3872 4.19445 25.707 5.4751 25.707 7.12572C25.707 8.0364 25.9621 8.89016 26.4722 9.68701C27.3791 11.053 28.6544 11.736 30.2981 11.736C31.205 11.736 32.0552 11.4799 32.8487 10.9677C34.2091 10.057 34.8892 8.77633 34.8892 7.12572C34.8892 6.21503 34.6342 5.36127 34.124 4.56442C33.2172 3.19839 31.9419 2.51538 30.2981 2.51538C29.3912 2.51538 28.541 2.77151 27.7475 3.28377Z" fill="white"/>
<path d="M42.8569 31.25C41.4966 32.1606 40.8164 33.4413 40.8164 35.0919C40.8164 36.0026 41.0715 36.8563 41.5816 37.6532C42.4885 39.0192 43.7638 39.7022 45.4075 39.7022C46.3144 39.7022 47.1646 39.4461 47.9581 38.9338C49.3184 38.0232 49.9986 36.7425 49.9986 35.0919C49.9986 34.1812 49.7435 33.3275 49.2334 32.5306C48.3265 31.1646 47.0512 30.4816 45.4075 30.4816C44.5006 30.4816 43.6504 30.7377 42.8569 31.25Z" fill="white"/>
<path d="M42.2355 4.35925H49.5812L31.2168 39.3978H23.8711L42.2355 4.35925Z" fill="white"/>
<path d="M47.0664 47.45V42.5897H49.5791V43.5618H48.0397V44.5477H48.9302V45.5267H48.0397V46.471H49.5791V47.45H47.0664Z" fill="white"/>
<path d="M40.6113 47.45V42.5897H41.5846V47.45H40.6113ZM41.9574 45.4642V44.5963H42.0471C42.3417 44.5963 42.5303 44.476 42.6132 44.2353C42.6316 44.1751 42.6408 44.1126 42.6408 44.0478C42.6408 43.8025 42.5257 43.6381 42.2956 43.5548C42.222 43.5271 42.1392 43.5132 42.0471 43.5132H41.9574V42.5897H42.1093C42.7121 42.599 43.1355 42.8142 43.3794 43.2354C43.4944 43.4345 43.552 43.659 43.552 43.9089C43.5474 44.3857 43.3909 44.7514 43.0826 45.006C43.3127 45.1541 43.4599 45.4226 43.5244 45.8114C43.529 45.8577 43.5336 45.9016 43.5382 45.9433L43.6555 47.45H42.7581L42.6546 46.2141C42.6178 45.8438 42.5119 45.6147 42.3371 45.5267C42.2542 45.4897 42.153 45.4688 42.0333 45.4642H41.9574Z" fill="white"/>
<path d="M33.9277 47.45L34.8182 43.409H34.9218L35.3359 45.3531L34.8803 47.45H33.9277ZM35.3981 46.8598L35.6051 45.9016H35.8536L35.1219 42.5897H36.0814L37.2204 47.45H36.254L36.116 46.8598H35.3981Z" fill="white"/>
<path d="M25.3398 42.5897H26.3339L27.4314 46.353L27.0656 47.45H26.7411L25.3398 42.5897ZM27.1139 43.8812L27.4935 42.5897H28.4876L29.5782 46.353L29.2193 47.45H28.8948L27.9837 44.2839C27.9376 44.432 27.8709 44.6565 27.7835 44.9574C27.719 45.1703 27.6707 45.33 27.6385 45.4364H27.5695L27.1139 43.8812ZM29.2952 43.8812L29.6749 42.5897H30.6689L29.8198 45.4364H29.7508L29.2952 43.8812Z" fill="white"/>
<path d="M19.2109 43.5479V42.5897H22.1999V43.5479H21.1921V47.45H20.2188V43.5479H19.2109Z" fill="white"/>
<path d="M13.4453 47.443V42.5897H15.958V43.5618H14.4186V44.5477H15.3091V45.5267H14.4186V47.443H13.4453Z" fill="white"/>
<path d="M6.83203 46.096V43.8117C6.83203 43.5663 6.93557 43.3164 7.14266 43.0618C7.41878 42.7285 7.76852 42.5596 8.1919 42.5549V43.5339C8.00322 43.5386 7.87897 43.645 7.81915 43.8533C7.80994 43.8857 7.80534 43.9089 7.80534 43.9227V46.096C7.80534 46.2858 7.90888 46.4154 8.11597 46.4848C8.14818 46.4941 8.17119 46.4987 8.185 46.4987V47.4846C7.92269 47.4846 7.66038 47.3897 7.39807 47.1999C7.02531 46.9222 6.83663 46.5542 6.83203 46.096ZM8.56466 47.4846V46.4987C8.63829 46.4987 8.72112 46.4593 8.81316 46.3806C8.9006 46.302 8.94662 46.2071 8.95122 46.096V43.9227C8.95122 43.8394 8.9121 43.7515 8.83387 43.6589C8.76024 43.5802 8.6705 43.5386 8.56466 43.5339V42.5549C9.02945 42.5549 9.40221 42.7563 9.68293 43.159C9.844 43.3904 9.92453 43.608 9.92453 43.8117V46.096C9.92453 46.6098 9.69673 47.0032 9.24114 47.2763C9.00184 47.4152 8.77635 47.4846 8.56466 47.4846Z" fill="white"/>
<path d="M0.419922 46.353L1.29659 46.0405C1.29659 46.1562 1.3288 46.2581 1.39323 46.346C1.45766 46.434 1.52208 46.4918 1.58651 46.5196L1.68315 46.5682V47.4708C1.29199 47.4708 0.958348 47.2995 0.682232 46.957C0.51196 46.7395 0.424524 46.5381 0.419922 46.353ZM0.475145 43.9228C0.475145 43.4137 0.691436 43.0318 1.12402 42.7772C1.3219 42.6568 1.50828 42.5944 1.68315 42.5897V43.5062C1.5681 43.5386 1.48297 43.6219 1.42774 43.7562C1.40934 43.7978 1.40013 43.8418 1.40013 43.8881C1.40013 44.0779 1.54049 44.2399 1.82121 44.3741C1.88103 44.4019 1.97768 44.4436 2.11113 44.4991C2.33202 44.5871 2.48849 44.6588 2.58053 44.7143C2.95328 44.9365 3.20179 45.1633 3.32604 45.3948C3.41808 45.5753 3.4641 45.7767 3.4641 45.9988C3.4641 46.4201 3.30533 46.7811 2.9878 47.082C2.71629 47.3412 2.40796 47.4708 2.06281 47.4708V46.5682C2.24229 46.545 2.36884 46.4502 2.44247 46.2835C2.47468 46.2095 2.49079 46.1285 2.49079 46.0405C2.49079 45.8044 2.31592 45.61 1.96617 45.4573C1.90174 45.4295 1.8005 45.3902 1.66244 45.3392C1.50138 45.2837 1.38863 45.2397 1.3242 45.2073C0.928435 45.0175 0.675329 44.7722 0.564883 44.4713C0.505058 44.3093 0.475145 44.1265 0.475145 43.9228ZM2.06281 43.5062V42.5897C2.44937 42.5897 2.77381 42.754 3.03612 43.0827C3.18798 43.2771 3.26622 43.453 3.27082 43.6104L2.37344 43.9089C2.37344 43.7145 2.2791 43.5826 2.09042 43.5132C2.07202 43.5085 2.06281 43.5062 2.06281 43.5062Z" fill="white"/>
</svg>
